<mxfile host="app.diagrams.net" agent="Mozilla/5.0 (Windows NT 10.0; Win64; x64) AppleWebKit/537.36 (KHTML, like Gecko) Chrome/140.0.0.0 Safari/537.36 Edg/140.0.0.0" version="28.2.3">
  <diagram id="khLTX7HZnxRIh45HptcV" name="ページ1">
    <mxGraphModel dx="1017" dy="460" grid="1" gridSize="10" guides="1" tooltips="1" connect="1" arrows="1" fold="1" page="1" pageScale="1" pageWidth="827" pageHeight="1169" math="0" shadow="0">
      <root>
        <mxCell id="0" />
        <mxCell id="1" parent="0" />
        <mxCell id="2" value="メニューから新規登録を選択" style="text;html=1;align=center;verticalAlign=middle;whiteSpace=wrap;rounded=0;" parent="1" vertex="1">
          <mxGeometry x="90" y="110" width="170" height="30" as="geometry" />
        </mxCell>
        <mxCell id="6lc0MpODrHgHwTTn9M-w-2" value="ユーザー" style="shape=umlActor;verticalLabelPosition=bottom;verticalAlign=top;html=1;outlineConnect=0;" parent="1" vertex="1">
          <mxGeometry x="120" y="160" width="30" height="60" as="geometry" />
        </mxCell>
        <mxCell id="6lc0MpODrHgHwTTn9M-w-3" value="新規登録画面" style="shape=umlBoundary;whiteSpace=wrap;html=1;fillColor=#f8cecc;strokeColor=#b85450;" parent="1" vertex="1">
          <mxGeometry x="290" y="70" width="100" height="80" as="geometry" />
        </mxCell>
        <mxCell id="6lc0MpODrHgHwTTn9M-w-5" value="" style="endArrow=classic;html=1;rounded=0;exitX=1;exitY=0.3333333333333333;exitDx=0;exitDy=0;exitPerimeter=0;entryX=0.003;entryY=0.517;entryDx=0;entryDy=0;entryPerimeter=0;" parent="1" source="6lc0MpODrHgHwTTn9M-w-2" target="6lc0MpODrHgHwTTn9M-w-3" edge="1">
          <mxGeometry width="50" height="50" relative="1" as="geometry">
            <mxPoint x="450" y="270" as="sourcePoint" />
            <mxPoint x="500" y="220" as="targetPoint" />
          </mxGeometry>
        </mxCell>
        <mxCell id="6lc0MpODrHgHwTTn9M-w-6" value="新規登録" style="ellipse;shape=umlControl;whiteSpace=wrap;html=1;fillColor=#fff2cc;strokeColor=#d6b656;" parent="1" vertex="1">
          <mxGeometry x="510" y="300" width="70" height="80" as="geometry" />
        </mxCell>
        <mxCell id="6lc0MpODrHgHwTTn9M-w-7" value="表示" style="ellipse;shape=umlControl;whiteSpace=wrap;html=1;fillColor=#fff2cc;strokeColor=#d6b656;" parent="1" vertex="1">
          <mxGeometry x="305" y="370" width="70" height="80" as="geometry" />
        </mxCell>
        <mxCell id="6lc0MpODrHgHwTTn9M-w-10" value="登録完了画面" style="shape=umlBoundary;whiteSpace=wrap;html=1;fillColor=#f8cecc;strokeColor=#b85450;" parent="1" vertex="1">
          <mxGeometry x="100" y="390" width="110" height="90" as="geometry" />
        </mxCell>
        <mxCell id="6lc0MpODrHgHwTTn9M-w-11" value="登録エラー発生画面" style="shape=umlBoundary;whiteSpace=wrap;html=1;fillColor=#f8cecc;strokeColor=#b85450;" parent="1" vertex="1">
          <mxGeometry x="90" y="540" width="110" height="90" as="geometry" />
        </mxCell>
        <mxCell id="6lc0MpODrHgHwTTn9M-w-13" value="訪問者" style="ellipse;shape=umlEntity;whiteSpace=wrap;html=1;fillColor=#dae8fc;strokeColor=#6c8ebf;" parent="1" vertex="1">
          <mxGeometry x="720" y="300" width="80" height="80" as="geometry" />
        </mxCell>
        <mxCell id="6lc0MpODrHgHwTTn9M-w-14" value="" style="endArrow=block;startArrow=block;endFill=1;startFill=1;html=1;rounded=0;entryX=0;entryY=0.5;entryDx=0;entryDy=0;exitX=1.005;exitY=0.5;exitDx=0;exitDy=0;exitPerimeter=0;" parent="1" source="6lc0MpODrHgHwTTn9M-w-6" target="6lc0MpODrHgHwTTn9M-w-13" edge="1">
          <mxGeometry width="160" relative="1" as="geometry">
            <mxPoint x="410" y="240" as="sourcePoint" />
            <mxPoint x="570" y="240" as="targetPoint" />
          </mxGeometry>
        </mxCell>
        <mxCell id="6lc0MpODrHgHwTTn9M-w-23" value="登録情報" style="ellipse;shape=umlControl;whiteSpace=wrap;html=1;fillColor=#fff2cc;strokeColor=#d6b656;" parent="1" vertex="1">
          <mxGeometry x="420" y="190" width="70" height="80" as="geometry" />
        </mxCell>
        <mxCell id="6lc0MpODrHgHwTTn9M-w-24" value="" style="endArrow=classic;html=1;rounded=0;exitX=0.881;exitY=0.849;exitDx=0;exitDy=0;exitPerimeter=0;entryX=0.153;entryY=0.238;entryDx=0;entryDy=0;entryPerimeter=0;" parent="1" source="6lc0MpODrHgHwTTn9M-w-3" target="6lc0MpODrHgHwTTn9M-w-23" edge="1">
          <mxGeometry width="50" height="50" relative="1" as="geometry">
            <mxPoint x="410" y="280" as="sourcePoint" />
            <mxPoint x="460" y="230" as="targetPoint" />
          </mxGeometry>
        </mxCell>
        <mxCell id="6lc0MpODrHgHwTTn9M-w-25" value="" style="endArrow=classic;html=1;rounded=0;entryX=0.138;entryY=0.353;entryDx=0;entryDy=0;entryPerimeter=0;exitX=0.852;exitY=0.923;exitDx=0;exitDy=0;exitPerimeter=0;" parent="1" source="6lc0MpODrHgHwTTn9M-w-23" target="6lc0MpODrHgHwTTn9M-w-6" edge="1">
          <mxGeometry width="50" height="50" relative="1" as="geometry">
            <mxPoint x="410" y="280" as="sourcePoint" />
            <mxPoint x="460" y="230" as="targetPoint" />
          </mxGeometry>
        </mxCell>
        <mxCell id="6lc0MpODrHgHwTTn9M-w-26" value="" style="endArrow=classic;html=1;rounded=0;entryX=0.96;entryY=0.557;entryDx=0;entryDy=0;entryPerimeter=0;exitX=0;exitY=0.65;exitDx=0;exitDy=0;exitPerimeter=0;" parent="1" source="6lc0MpODrHgHwTTn9M-w-6" target="6lc0MpODrHgHwTTn9M-w-7" edge="1">
          <mxGeometry width="50" height="50" relative="1" as="geometry">
            <mxPoint x="410" y="500" as="sourcePoint" />
            <mxPoint x="460" y="450" as="targetPoint" />
          </mxGeometry>
        </mxCell>
        <mxCell id="6lc0MpODrHgHwTTn9M-w-27" value="" style="endArrow=classic;html=1;rounded=0;entryX=0.983;entryY=0.503;entryDx=0;entryDy=0;entryPerimeter=0;exitX=0.008;exitY=0.747;exitDx=0;exitDy=0;exitPerimeter=0;" parent="1" source="6lc0MpODrHgHwTTn9M-w-7" target="6lc0MpODrHgHwTTn9M-w-10" edge="1">
          <mxGeometry width="50" height="50" relative="1" as="geometry">
            <mxPoint x="410" y="500" as="sourcePoint" />
            <mxPoint x="460" y="450" as="targetPoint" />
          </mxGeometry>
        </mxCell>
        <mxCell id="6lc0MpODrHgHwTTn9M-w-28" value="" style="endArrow=classic;html=1;rounded=0;entryX=1.01;entryY=0.428;entryDx=0;entryDy=0;entryPerimeter=0;exitX=0.008;exitY=0.747;exitDx=0;exitDy=0;exitPerimeter=0;" parent="1" source="6lc0MpODrHgHwTTn9M-w-30" target="6lc0MpODrHgHwTTn9M-w-11" edge="1">
          <mxGeometry width="50" height="50" relative="1" as="geometry">
            <mxPoint x="491.87" y="619" as="sourcePoint" />
            <mxPoint x="279.87" y="584" as="targetPoint" />
          </mxGeometry>
        </mxCell>
        <mxCell id="6lc0MpODrHgHwTTn9M-w-29" value="" style="endArrow=classic;html=1;rounded=0;entryX=0.944;entryY=0.448;entryDx=0;entryDy=0;entryPerimeter=0;exitX=0.014;exitY=0.625;exitDx=0;exitDy=0;exitPerimeter=0;" parent="1" source="6lc0MpODrHgHwTTn9M-w-6" target="6lc0MpODrHgHwTTn9M-w-30" edge="1">
          <mxGeometry width="50" height="50" relative="1" as="geometry">
            <mxPoint x="591.87" y="471" as="sourcePoint" />
            <mxPoint x="541.87" y="569" as="targetPoint" />
          </mxGeometry>
        </mxCell>
        <mxCell id="6lc0MpODrHgHwTTn9M-w-30" value="表示" style="ellipse;shape=umlControl;whiteSpace=wrap;html=1;fillColor=#fff2cc;strokeColor=#d6b656;" parent="1" vertex="1">
          <mxGeometry x="305" y="520" width="70" height="80" as="geometry" />
        </mxCell>
        <mxCell id="QgeoZGU62K-IdDuzepqn-2" value="登録情報入力" style="text;html=1;align=center;verticalAlign=middle;whiteSpace=wrap;rounded=0;" parent="1" vertex="1">
          <mxGeometry x="360" y="150" width="170" height="30" as="geometry" />
        </mxCell>
        <mxCell id="QgeoZGU62K-IdDuzepqn-4" value="データベース" style="ellipse;shape=umlControl;whiteSpace=wrap;html=1;fillColor=#fff2cc;strokeColor=#d6b656;" parent="1" vertex="1">
          <mxGeometry x="700" y="520" width="70" height="80" as="geometry" />
        </mxCell>
        <mxCell id="QgeoZGU62K-IdDuzepqn-5" value="" style="endArrow=classic;html=1;rounded=0;exitX=0.5;exitY=1.05;exitDx=0;exitDy=0;exitPerimeter=0;entryX=0.5;entryY=0;entryDx=0;entryDy=0;" parent="1" source="6lc0MpODrHgHwTTn9M-w-6" target="schoN6x9kWwXhmrbGElG-2" edge="1">
          <mxGeometry width="50" height="50" relative="1" as="geometry">
            <mxPoint x="605" y="390" as="sourcePoint" />
            <mxPoint x="570" y="520" as="targetPoint" />
          </mxGeometry>
        </mxCell>
        <mxCell id="schoN6x9kWwXhmrbGElG-2" value="データベース" style="ellipse;shape=umlEntity;whiteSpace=wrap;html=1;fillColor=#dae8fc;strokeColor=#6c8ebf;" vertex="1" parent="1">
          <mxGeometry x="505" y="540" width="80" height="80" as="geometry" />
        </mxCell>
      </root>
    </mxGraphModel>
  </diagram>
</mxfile>
